<svg width="417" height="77" viewBox="0 0 417 77" fill="none" xmlns="http://www.w3.org/2000/svg">
<path d="M0.934872 15.25L417 15.25" stroke="#D4D4D8" stroke-width="2"/>
<circle cx="85.8301" cy="16.25" r="15.5" fill="white" stroke="#D4D4D8"/>
<path d="M83.4381 12.01V10.682H86.4461V22.25H84.9741V12.01H83.4381Z" fill="#548AC6"/>
<path d="M49.7615 44.886V45.774H47.4815V53.25H46.3895V45.774H44.0975V44.886H49.7615ZM51.6696 45.606C51.4616 45.606 51.2856 45.534 51.1416 45.39C50.9976 45.246 50.9256 45.07 50.9256 44.862C50.9256 44.654 50.9976 44.478 51.1416 44.334C51.2856 44.19 51.4616 44.118 51.6696 44.118C51.8696 44.118 52.0376 44.19 52.1736 44.334C52.3176 44.478 52.3896 44.654 52.3896 44.862C52.3896 45.07 52.3176 45.246 52.1736 45.39C52.0376 45.534 51.8696 45.606 51.6696 45.606ZM52.1976 46.674V53.25H51.1056V46.674H52.1976ZM55.1508 47.886C55.3668 47.51 55.6868 47.198 56.1108 46.95C56.5428 46.694 57.0428 46.566 57.6108 46.566C58.1948 46.566 58.7228 46.706 59.1948 46.986C59.6748 47.266 60.0508 47.662 60.3228 48.174C60.5948 48.678 60.7308 49.266 60.7308 49.938C60.7308 50.602 60.5948 51.194 60.3228 51.714C60.0508 52.234 59.6748 52.638 59.1948 52.926C58.7228 53.214 58.1948 53.358 57.6108 53.358C57.0508 53.358 56.5548 53.234 56.1228 52.986C55.6988 52.73 55.3748 52.414 55.1508 52.038V56.37H54.0588V46.674H55.1508V47.886ZM59.6148 49.938C59.6148 49.442 59.5148 49.01 59.3148 48.642C59.1148 48.274 58.8428 47.994 58.4988 47.802C58.1628 47.61 57.7908 47.514 57.3828 47.514C56.9828 47.514 56.6108 47.614 56.2668 47.814C55.9308 48.006 55.6588 48.29 55.4508 48.666C55.2508 49.034 55.1508 49.462 55.1508 49.95C55.1508 50.446 55.2508 50.882 55.4508 51.258C55.6588 51.626 55.9308 51.91 56.2668 52.11C56.6108 52.302 56.9828 52.398 57.3828 52.398C57.7908 52.398 58.1628 52.302 58.4988 52.11C58.8428 51.91 59.1148 51.626 59.3148 51.258C59.5148 50.882 59.6148 50.442 59.6148 49.938ZM65.0361 53.358C64.4201 53.358 63.8601 53.218 63.3561 52.938C62.8601 52.658 62.4681 52.262 62.1801 51.75C61.9001 51.23 61.7601 50.63 61.7601 49.95C61.7601 49.278 61.9041 48.686 62.1921 48.174C62.4881 47.654 62.8881 47.258 63.3921 46.986C63.8961 46.706 64.4601 46.566 65.0841 46.566C65.7081 46.566 66.2721 46.706 66.7761 46.986C67.2801 47.258 67.6761 47.65 67.9641 48.162C68.2601 48.674 68.4081 49.27 68.4081 49.95C68.4081 50.63 68.2561 51.23 67.9521 51.75C67.6561 52.262 67.2521 52.658 66.7401 52.938C66.2281 53.218 65.6601 53.358 65.0361 53.358ZM65.0361 52.398C65.4281 52.398 65.7961 52.306 66.1401 52.122C66.4841 51.938 66.7601 51.662 66.9681 51.294C67.1841 50.926 67.2921 50.478 67.2921 49.95C67.2921 49.422 67.1881 48.974 66.9801 48.606C66.7721 48.238 66.5001 47.966 66.1641 47.79C65.8281 47.606 65.4641 47.514 65.0721 47.514C64.6721 47.514 64.3041 47.606 63.9681 47.79C63.6401 47.966 63.3761 48.238 63.1761 48.606C62.9761 48.974 62.8761 49.422 62.8761 49.95C62.8761 50.486 62.9721 50.938 63.1641 51.306C63.3641 51.674 63.6281 51.95 63.9561 52.134C64.2841 52.31 64.6441 52.398 65.0361 52.398ZM72.6351 49.938C72.6351 49.266 72.7711 48.678 73.0431 48.174C73.3151 47.662 73.6871 47.266 74.1591 46.986C74.6391 46.706 75.1751 46.566 75.7671 46.566C76.2791 46.566 76.7551 46.686 77.1951 46.926C77.6351 47.158 77.9711 47.466 78.2031 47.85V44.37H79.3071V53.25H78.2031V52.014C77.9871 52.406 77.6671 52.73 77.2431 52.986C76.8191 53.234 76.3231 53.358 75.7551 53.358C75.1711 53.358 74.6391 53.214 74.1591 52.926C73.6871 52.638 73.3151 52.234 73.0431 51.714C72.7711 51.194 72.6351 50.602 72.6351 49.938ZM78.2031 49.95C78.2031 49.454 78.1031 49.022 77.9031 48.654C77.7031 48.286 77.4311 48.006 77.0871 47.814C76.7511 47.614 76.3791 47.514 75.9711 47.514C75.5631 47.514 75.1911 47.61 74.8551 47.802C74.5191 47.994 74.2511 48.274 74.0511 48.642C73.8511 49.01 73.7511 49.442 73.7511 49.938C73.7511 50.442 73.8511 50.882 74.0511 51.258C74.2511 51.626 74.5191 51.91 74.8551 52.11C75.1911 52.302 75.5631 52.398 75.9711 52.398C76.3791 52.398 76.7511 52.302 77.0871 52.11C77.4311 51.91 77.7031 51.626 77.9031 51.258C78.1031 50.882 78.2031 50.446 78.2031 49.95ZM87.1525 49.71C87.1525 49.918 87.1405 50.138 87.1165 50.37H81.8605C81.9005 51.018 82.1205 51.526 82.5205 51.894C82.9285 52.254 83.4205 52.434 83.9965 52.434C84.4685 52.434 84.8605 52.326 85.1725 52.11C85.4925 51.886 85.7165 51.59 85.8445 51.222H87.0205C86.8445 51.854 86.4925 52.37 85.9645 52.77C85.4365 53.162 84.7805 53.358 83.9965 53.358C83.3725 53.358 82.8125 53.218 82.3165 52.938C81.8285 52.658 81.4445 52.262 81.1645 51.75C80.8845 51.23 80.7445 50.63 80.7445 49.95C80.7445 49.27 80.8805 48.674 81.1525 48.162C81.4245 47.65 81.8045 47.258 82.2925 46.986C82.7885 46.706 83.3565 46.566 83.9965 46.566C84.6205 46.566 85.1725 46.702 85.6525 46.974C86.1325 47.246 86.5005 47.622 86.7565 48.102C87.0205 48.574 87.1525 49.11 87.1525 49.71ZM86.0245 49.482C86.0245 49.066 85.9325 48.71 85.7485 48.414C85.5645 48.11 85.3125 47.882 84.9925 47.73C84.6805 47.57 84.3325 47.49 83.9485 47.49C83.3965 47.49 82.9245 47.666 82.5325 48.018C82.1485 48.37 81.9285 48.858 81.8725 49.482H86.0245ZM91.3851 49.062C91.3851 48.246 91.5691 47.514 91.9371 46.866C92.3051 46.21 92.8051 45.698 93.4371 45.33C94.0771 44.962 94.7851 44.778 95.5611 44.778C96.4731 44.778 97.2691 44.998 97.9491 45.438C98.6291 45.878 99.1251 46.502 99.4371 47.31H98.1291C97.8971 46.806 97.5611 46.418 97.1211 46.146C96.6891 45.874 96.1691 45.738 95.5611 45.738C94.9771 45.738 94.4531 45.874 93.9891 46.146C93.5251 46.418 93.1611 46.806 92.8971 47.31C92.6331 47.806 92.5011 48.39 92.5011 49.062C92.5011 49.726 92.6331 50.31 92.8971 50.814C93.1611 51.31 93.5251 51.694 93.9891 51.966C94.4531 52.238 94.9771 52.374 95.5611 52.374C96.1691 52.374 96.6891 52.242 97.1211 51.978C97.5611 51.706 97.8971 51.318 98.1291 50.814H99.4371C99.1251 51.614 98.6291 52.234 97.9491 52.674C97.2691 53.106 96.4731 53.322 95.5611 53.322C94.7851 53.322 94.0771 53.142 93.4371 52.782C92.8051 52.414 92.3051 51.906 91.9371 51.258C91.5691 50.61 91.3851 49.878 91.3851 49.062ZM103.931 53.358C103.315 53.358 102.755 53.218 102.251 52.938C101.755 52.658 101.363 52.262 101.075 51.75C100.795 51.23 100.655 50.63 100.655 49.95C100.655 49.278 100.799 48.686 101.087 48.174C101.383 47.654 101.783 47.258 102.287 46.986C102.791 46.706 103.355 46.566 103.979 46.566C104.603 46.566 105.167 46.706 105.671 46.986C106.175 47.258 106.571 47.65 106.859 48.162C107.155 48.674 107.303 49.27 107.303 49.95C107.303 50.63 107.151 51.23 106.847 51.75C106.551 52.262 106.147 52.658 105.635 52.938C105.123 53.218 104.555 53.358 103.931 53.358ZM103.931 52.398C104.323 52.398 104.691 52.306 105.035 52.122C105.379 51.938 105.655 51.662 105.863 51.294C106.079 50.926 106.187 50.478 106.187 49.95C106.187 49.422 106.083 48.974 105.875 48.606C105.667 48.238 105.395 47.966 105.059 47.79C104.723 47.606 104.359 47.514 103.967 47.514C103.567 47.514 103.199 47.606 102.863 47.79C102.535 47.966 102.271 48.238 102.071 48.606C101.871 48.974 101.771 49.422 101.771 49.95C101.771 50.486 101.867 50.938 102.059 51.306C102.259 51.674 102.523 51.95 102.851 52.134C103.179 52.31 103.539 52.398 103.931 52.398ZM111.942 46.554C112.742 46.554 113.39 46.798 113.886 47.286C114.382 47.766 114.63 48.462 114.63 49.374V53.25H113.55V49.53C113.55 48.874 113.386 48.374 113.058 48.03C112.73 47.678 112.282 47.502 111.714 47.502C111.138 47.502 110.678 47.682 110.334 48.042C109.998 48.402 109.83 48.926 109.83 49.614V53.25H108.738V46.674H109.83V47.61C110.046 47.274 110.338 47.014 110.706 46.83C111.082 46.646 111.494 46.554 111.942 46.554ZM117.746 47.574V51.45C117.746 51.77 117.814 51.998 117.95 52.134C118.086 52.262 118.322 52.326 118.658 52.326H119.462V53.25H118.478C117.87 53.25 117.414 53.11 117.11 52.83C116.806 52.55 116.654 52.09 116.654 51.45V47.574H115.802V46.674H116.654V45.018H117.746V46.674H119.462V47.574H117.746ZM120.377 49.938C120.377 49.266 120.513 48.678 120.785 48.174C121.057 47.662 121.429 47.266 121.901 46.986C122.381 46.706 122.913 46.566 123.497 46.566C124.073 46.566 124.573 46.69 124.997 46.938C125.421 47.186 125.737 47.498 125.945 47.874V46.674H127.049V53.25H125.945V52.026C125.729 52.41 125.405 52.73 124.973 52.986C124.549 53.234 124.053 53.358 123.485 53.358C122.901 53.358 122.373 53.214 121.901 52.926C121.429 52.638 121.057 52.234 120.785 51.714C120.513 51.194 120.377 50.602 120.377 49.938ZM125.945 49.95C125.945 49.454 125.845 49.022 125.645 48.654C125.445 48.286 125.173 48.006 124.829 47.814C124.493 47.614 124.121 47.514 123.713 47.514C123.305 47.514 122.933 47.61 122.597 47.802C122.261 47.994 121.993 48.274 121.793 48.642C121.593 49.01 121.493 49.442 121.493 49.938C121.493 50.442 121.593 50.882 121.793 51.258C121.993 51.626 122.261 51.91 122.597 52.11C122.933 52.302 123.305 52.398 123.713 52.398C124.121 52.398 124.493 52.302 124.829 52.11C125.173 51.91 125.445 51.626 125.645 51.258C125.845 50.882 125.945 50.446 125.945 49.95Z" fill="#C8C8D0"/>
<circle cx="213.83" cy="16.25" r="15.5" fill="white" stroke="#D4D4D8"/>
<path d="M209.646 21.082C211.001 19.994 212.062 19.1033 212.83 18.41C213.598 17.706 214.243 16.9753 214.766 16.218C215.299 15.45 215.566 14.698 215.566 13.962C215.566 13.2686 215.395 12.7246 215.054 12.33C214.723 11.9246 214.185 11.722 213.438 11.722C212.713 11.722 212.147 11.9513 211.742 12.41C211.347 12.858 211.134 13.4606 211.102 14.218H209.694C209.737 13.0233 210.099 12.1006 210.782 11.45C211.465 10.7993 212.345 10.474 213.422 10.474C214.521 10.474 215.39 10.778 216.03 11.386C216.681 11.994 217.006 12.8313 217.006 13.898C217.006 14.7833 216.739 15.6473 216.206 16.49C215.683 17.322 215.086 18.058 214.414 18.698C213.742 19.3273 212.883 20.0633 211.838 20.906H217.342V22.122H209.646V21.082Z" fill="#C8C8D0"/>
<path d="M177.907 44.886V53.25H176.815V44.886H177.907ZM182.972 46.554C183.772 46.554 184.42 46.798 184.916 47.286C185.412 47.766 185.66 48.462 185.66 49.374V53.25H184.58V49.53C184.58 48.874 184.416 48.374 184.088 48.03C183.76 47.678 183.312 47.502 182.744 47.502C182.168 47.502 181.708 47.682 181.364 48.042C181.028 48.402 180.86 48.926 180.86 49.614V53.25H179.768V46.674H180.86V47.61C181.076 47.274 181.368 47.014 181.736 46.83C182.112 46.646 182.524 46.554 182.972 46.554ZM190.12 47.574H188.74V53.25H187.648V47.574H186.796V46.674H187.648V46.206C187.648 45.47 187.836 44.934 188.212 44.598C188.596 44.254 189.208 44.082 190.048 44.082V44.994C189.568 44.994 189.228 45.09 189.028 45.282C188.836 45.466 188.74 45.774 188.74 46.206V46.674H190.12V47.574ZM194.261 53.358C193.645 53.358 193.085 53.218 192.581 52.938C192.085 52.658 191.693 52.262 191.405 51.75C191.125 51.23 190.985 50.63 190.985 49.95C190.985 49.278 191.129 48.686 191.417 48.174C191.713 47.654 192.113 47.258 192.617 46.986C193.121 46.706 193.685 46.566 194.309 46.566C194.933 46.566 195.497 46.706 196.001 46.986C196.505 47.258 196.901 47.65 197.189 48.162C197.485 48.674 197.633 49.27 197.633 49.95C197.633 50.63 197.481 51.23 197.177 51.75C196.881 52.262 196.477 52.658 195.965 52.938C195.453 53.218 194.885 53.358 194.261 53.358ZM194.261 52.398C194.653 52.398 195.021 52.306 195.365 52.122C195.709 51.938 195.985 51.662 196.193 51.294C196.409 50.926 196.517 50.478 196.517 49.95C196.517 49.422 196.413 48.974 196.205 48.606C195.997 48.238 195.725 47.966 195.389 47.79C195.053 47.606 194.689 47.514 194.297 47.514C193.897 47.514 193.529 47.606 193.193 47.79C192.865 47.966 192.601 48.238 192.401 48.606C192.201 48.974 192.101 49.422 192.101 49.95C192.101 50.486 192.197 50.938 192.389 51.306C192.589 51.674 192.853 51.95 193.181 52.134C193.509 52.31 193.869 52.398 194.261 52.398ZM200.161 47.742C200.353 47.366 200.625 47.074 200.977 46.866C201.337 46.658 201.773 46.554 202.285 46.554V47.682H201.997C200.773 47.682 200.161 48.346 200.161 49.674V53.25H199.069V46.674H200.161V47.742ZM211.453 46.554C211.965 46.554 212.421 46.662 212.821 46.878C213.221 47.086 213.537 47.402 213.769 47.826C214.001 48.25 214.117 48.766 214.117 49.374V53.25H213.037V49.53C213.037 48.874 212.873 48.374 212.545 48.03C212.225 47.678 211.789 47.502 211.237 47.502C210.669 47.502 210.217 47.686 209.881 48.054C209.545 48.414 209.377 48.938 209.377 49.626V53.25H208.297V49.53C208.297 48.874 208.133 48.374 207.805 48.03C207.485 47.678 207.049 47.502 206.497 47.502C205.929 47.502 205.477 47.686 205.141 48.054C204.805 48.414 204.637 48.938 204.637 49.626V53.25H203.545V46.674H204.637V47.622C204.853 47.278 205.141 47.014 205.501 46.83C205.869 46.646 206.273 46.554 206.713 46.554C207.265 46.554 207.753 46.678 208.177 46.926C208.601 47.174 208.917 47.538 209.125 48.018C209.309 47.554 209.613 47.194 210.037 46.938C210.461 46.682 210.933 46.554 211.453 46.554ZM215.5 49.938C215.5 49.266 215.636 48.678 215.908 48.174C216.18 47.662 216.552 47.266 217.024 46.986C217.504 46.706 218.036 46.566 218.62 46.566C219.196 46.566 219.696 46.69 220.12 46.938C220.544 47.186 220.86 47.498 221.068 47.874V46.674H222.172V53.25H221.068V52.026C220.852 52.41 220.528 52.73 220.096 52.986C219.672 53.234 219.176 53.358 218.608 53.358C218.024 53.358 217.496 53.214 217.024 52.926C216.552 52.638 216.18 52.234 215.908 51.714C215.636 51.194 215.5 50.602 215.5 49.938ZM221.068 49.95C221.068 49.454 220.968 49.022 220.768 48.654C220.568 48.286 220.296 48.006 219.952 47.814C219.616 47.614 219.244 47.514 218.836 47.514C218.428 47.514 218.056 47.61 217.72 47.802C217.384 47.994 217.116 48.274 216.916 48.642C216.716 49.01 216.616 49.442 216.616 49.938C216.616 50.442 216.716 50.882 216.916 51.258C217.116 51.626 217.384 51.91 217.72 52.11C218.056 52.302 218.428 52.398 218.836 52.398C219.244 52.398 219.616 52.302 219.952 52.11C220.296 51.91 220.568 51.626 220.768 51.258C220.968 50.882 221.068 50.446 221.068 49.95ZM226.814 52.434C227.294 52.434 227.694 52.322 228.014 52.098C228.334 51.874 228.554 51.554 228.674 51.138H229.85C229.69 51.762 229.374 52.274 228.902 52.674C228.438 53.066 227.854 53.29 227.15 53.346V53.946C227.622 53.938 227.998 54.038 228.278 54.246C228.558 54.454 228.698 54.75 228.698 55.134C228.698 55.51 228.562 55.81 228.29 56.034C228.018 56.258 227.666 56.37 227.234 56.37H225.854V55.662H227.018C227.282 55.662 227.474 55.622 227.594 55.542C227.722 55.462 227.786 55.326 227.786 55.134C227.786 54.95 227.722 54.818 227.594 54.738C227.474 54.658 227.282 54.618 227.018 54.618H226.418V53.334C225.866 53.278 225.378 53.106 224.954 52.818C224.53 52.522 224.198 52.13 223.958 51.642C223.726 51.146 223.61 50.582 223.61 49.95C223.61 49.27 223.746 48.678 224.018 48.174C224.29 47.662 224.666 47.266 225.146 46.986C225.634 46.706 226.19 46.566 226.814 46.566C227.622 46.566 228.286 46.762 228.806 47.154C229.334 47.546 229.682 48.09 229.85 48.786H228.674C228.562 48.386 228.342 48.07 228.014 47.838C227.694 47.606 227.294 47.49 226.814 47.49C226.19 47.49 225.686 47.706 225.302 48.138C224.918 48.562 224.726 49.166 224.726 49.95C224.726 50.742 224.918 51.354 225.302 51.786C225.686 52.218 226.19 52.434 226.814 52.434ZM234.175 53.358C233.559 53.358 232.999 53.218 232.495 52.938C231.999 52.658 231.607 52.262 231.319 51.75C231.039 51.23 230.899 50.63 230.899 49.95C230.899 49.278 231.043 48.686 231.331 48.174C231.627 47.654 232.027 47.258 232.531 46.986C233.035 46.706 233.599 46.566 234.223 46.566C234.847 46.566 235.411 46.706 235.915 46.986C236.419 47.258 236.815 47.65 237.103 48.162C237.399 48.674 237.547 49.27 237.547 49.95C237.547 50.63 237.395 51.23 237.091 51.75C236.795 52.262 236.391 52.658 235.879 52.938C235.367 53.218 234.799 53.358 234.175 53.358ZM234.175 52.398C234.567 52.398 234.935 52.306 235.279 52.122C235.623 51.938 235.899 51.662 236.107 51.294C236.323 50.926 236.431 50.478 236.431 49.95C236.431 49.422 236.327 48.974 236.119 48.606C235.911 48.238 235.639 47.966 235.303 47.79C234.967 47.606 234.603 47.514 234.211 47.514C233.811 47.514 233.443 47.606 233.107 47.79C232.779 47.966 232.515 48.238 232.315 48.606C232.115 48.974 232.015 49.422 232.015 49.95C232.015 50.486 232.111 50.938 232.303 51.306C232.503 51.674 232.767 51.95 233.095 52.134C233.423 52.31 233.783 52.398 234.175 52.398ZM232.471 45.882C232.527 45.474 232.659 45.162 232.867 44.946C233.083 44.73 233.351 44.622 233.671 44.622C233.823 44.622 233.951 44.65 234.055 44.706C234.167 44.754 234.299 44.826 234.451 44.922C234.563 45.002 234.663 45.066 234.751 45.114C234.839 45.154 234.935 45.174 235.039 45.174C235.175 45.174 235.291 45.13 235.387 45.042C235.483 44.954 235.543 44.826 235.567 44.658H236.191C236.143 45.058 236.011 45.366 235.795 45.582C235.579 45.798 235.311 45.906 234.991 45.906C234.839 45.906 234.703 45.882 234.583 45.834C234.471 45.778 234.343 45.698 234.199 45.594C234.071 45.514 233.967 45.454 233.887 45.414C233.815 45.374 233.727 45.354 233.623 45.354C233.487 45.354 233.371 45.398 233.275 45.486C233.187 45.574 233.131 45.706 233.107 45.882H232.471ZM244.983 49.71C244.983 49.918 244.971 50.138 244.947 50.37H239.691C239.731 51.018 239.951 51.526 240.351 51.894C240.759 52.254 241.251 52.434 241.827 52.434C242.299 52.434 242.691 52.326 243.003 52.11C243.323 51.886 243.547 51.59 243.675 51.222H244.851C244.675 51.854 244.323 52.37 243.795 52.77C243.267 53.162 242.611 53.358 241.827 53.358C241.203 53.358 240.643 53.218 240.147 52.938C239.659 52.658 239.275 52.262 238.995 51.75C238.715 51.23 238.575 50.63 238.575 49.95C238.575 49.27 238.711 48.674 238.983 48.162C239.255 47.65 239.635 47.258 240.123 46.986C240.619 46.706 241.187 46.566 241.827 46.566C242.451 46.566 243.003 46.702 243.483 46.974C243.963 47.246 244.331 47.622 244.587 48.102C244.851 48.574 244.983 49.11 244.983 49.71ZM243.855 49.482C243.855 49.066 243.763 48.71 243.579 48.414C243.395 48.11 243.143 47.882 242.823 47.73C242.511 47.57 242.163 47.49 241.779 47.49C241.227 47.49 240.755 47.666 240.363 48.018C239.979 48.37 239.759 48.858 239.703 49.482H243.855ZM248.752 53.358C248.248 53.358 247.796 53.274 247.396 53.106C246.996 52.93 246.68 52.69 246.448 52.386C246.216 52.074 246.088 51.718 246.064 51.318H247.192C247.224 51.646 247.376 51.914 247.648 52.122C247.928 52.33 248.292 52.434 248.74 52.434C249.156 52.434 249.484 52.342 249.724 52.158C249.964 51.974 250.084 51.742 250.084 51.462C250.084 51.174 249.956 50.962 249.7 50.826C249.444 50.682 249.048 50.542 248.512 50.406C248.024 50.278 247.624 50.15 247.312 50.022C247.008 49.886 246.744 49.69 246.52 49.434C246.304 49.17 246.196 48.826 246.196 48.402C246.196 48.066 246.296 47.758 246.496 47.478C246.696 47.198 246.98 46.978 247.348 46.818C247.716 46.65 248.136 46.566 248.608 46.566C249.336 46.566 249.924 46.75 250.372 47.118C250.82 47.486 251.06 47.99 251.092 48.63H250C249.976 48.286 249.836 48.01 249.58 47.802C249.332 47.594 248.996 47.49 248.572 47.49C248.18 47.49 247.868 47.574 247.636 47.742C247.404 47.91 247.288 48.13 247.288 48.402C247.288 48.618 247.356 48.798 247.492 48.942C247.636 49.078 247.812 49.19 248.02 49.278C248.236 49.358 248.532 49.45 248.908 49.554C249.38 49.682 249.764 49.81 250.06 49.938C250.356 50.058 250.608 50.242 250.816 50.49C251.032 50.738 251.144 51.062 251.152 51.462C251.152 51.822 251.052 52.146 250.852 52.434C250.652 52.722 250.368 52.95 250 53.118C249.64 53.278 249.224 53.358 248.752 53.358ZM194.377 65.334C194.377 66.03 194.137 66.61 193.657 67.074C193.185 67.53 192.461 67.758 191.485 67.758H189.877V71.25H188.785V62.886H191.485C192.429 62.886 193.145 63.114 193.633 63.57C194.129 64.026 194.377 64.614 194.377 65.334ZM191.485 66.858C192.093 66.858 192.541 66.726 192.829 66.462C193.117 66.198 193.261 65.822 193.261 65.334C193.261 64.302 192.669 63.786 191.485 63.786H189.877V66.858H191.485ZM201.735 67.71C201.735 67.918 201.723 68.138 201.699 68.37H196.443C196.483 69.018 196.703 69.526 197.103 69.894C197.511 70.254 198.003 70.434 198.579 70.434C199.051 70.434 199.443 70.326 199.755 70.11C200.075 69.886 200.299 69.59 200.427 69.222H201.603C201.427 69.854 201.075 70.37 200.547 70.77C200.019 71.162 199.363 71.358 198.579 71.358C197.955 71.358 197.395 71.218 196.899 70.938C196.411 70.658 196.027 70.262 195.747 69.75C195.467 69.23 195.327 68.63 195.327 67.95C195.327 67.27 195.463 66.674 195.735 66.162C196.007 65.65 196.387 65.258 196.875 64.986C197.371 64.706 197.939 64.566 198.579 64.566C199.203 64.566 199.755 64.702 200.235 64.974C200.715 65.246 201.083 65.622 201.339 66.102C201.603 66.574 201.735 67.11 201.735 67.71ZM200.607 67.482C200.607 67.066 200.515 66.71 200.331 66.414C200.147 66.11 199.895 65.882 199.575 65.73C199.263 65.57 198.915 65.49 198.531 65.49C197.979 65.49 197.507 65.666 197.115 66.018C196.731 66.37 196.511 66.858 196.455 67.482H200.607ZM205.504 71.358C205 71.358 204.548 71.274 204.148 71.106C203.748 70.93 203.432 70.69 203.2 70.386C202.968 70.074 202.84 69.718 202.816 69.318H203.944C203.976 69.646 204.128 69.914 204.4 70.122C204.68 70.33 205.044 70.434 205.492 70.434C205.908 70.434 206.236 70.342 206.476 70.158C206.716 69.974 206.836 69.742 206.836 69.462C206.836 69.174 206.708 68.962 206.452 68.826C206.196 68.682 205.8 68.542 205.264 68.406C204.776 68.278 204.376 68.15 204.064 68.022C203.76 67.886 203.496 67.69 203.272 67.434C203.056 67.17 202.948 66.826 202.948 66.402C202.948 66.066 203.048 65.758 203.248 65.478C203.448 65.198 203.732 64.978 204.1 64.818C204.468 64.65 204.888 64.566 205.36 64.566C206.088 64.566 206.676 64.75 207.124 65.118C207.572 65.486 207.812 65.99 207.844 66.63H206.752C206.728 66.286 206.588 66.01 206.332 65.802C206.084 65.594 205.748 65.49 205.324 65.49C204.932 65.49 204.62 65.574 204.388 65.742C204.156 65.91 204.04 66.13 204.04 66.402C204.04 66.618 204.108 66.798 204.244 66.942C204.388 67.078 204.564 67.19 204.772 67.278C204.988 67.358 205.284 67.45 205.66 67.554C206.132 67.682 206.516 67.81 206.812 67.938C207.108 68.058 207.36 68.242 207.568 68.49C207.784 68.738 207.896 69.062 207.904 69.462C207.904 69.822 207.804 70.146 207.604 70.434C207.404 70.722 207.12 70.95 206.752 71.118C206.392 71.278 205.976 71.358 205.504 71.358ZM211.773 71.358C211.269 71.358 210.817 71.274 210.417 71.106C210.017 70.93 209.701 70.69 209.469 70.386C209.237 70.074 209.109 69.718 209.085 69.318H210.213C210.245 69.646 210.397 69.914 210.669 70.122C210.949 70.33 211.313 70.434 211.761 70.434C212.177 70.434 212.505 70.342 212.745 70.158C212.985 69.974 213.105 69.742 213.105 69.462C213.105 69.174 212.977 68.962 212.721 68.826C212.465 68.682 212.069 68.542 211.533 68.406C211.045 68.278 210.645 68.15 210.333 68.022C210.029 67.886 209.765 67.69 209.541 67.434C209.325 67.17 209.217 66.826 209.217 66.402C209.217 66.066 209.317 65.758 209.517 65.478C209.717 65.198 210.001 64.978 210.369 64.818C210.737 64.65 211.157 64.566 211.629 64.566C212.357 64.566 212.945 64.75 213.393 65.118C213.841 65.486 214.081 65.99 214.113 66.63H213.021C212.997 66.286 212.857 66.01 212.601 65.802C212.353 65.594 212.017 65.49 211.593 65.49C211.201 65.49 210.889 65.574 210.657 65.742C210.425 65.91 210.309 66.13 210.309 66.402C210.309 66.618 210.377 66.798 210.513 66.942C210.657 67.078 210.833 67.19 211.041 67.278C211.257 67.358 211.553 67.45 211.929 67.554C212.401 67.682 212.785 67.81 213.081 67.938C213.377 68.058 213.629 68.242 213.837 68.49C214.053 68.738 214.165 69.062 214.173 69.462C214.173 69.822 214.073 70.146 213.873 70.434C213.673 70.722 213.389 70.95 213.021 71.118C212.661 71.278 212.245 71.358 211.773 71.358ZM218.583 71.358C217.967 71.358 217.407 71.218 216.903 70.938C216.407 70.658 216.015 70.262 215.727 69.75C215.447 69.23 215.307 68.63 215.307 67.95C215.307 67.278 215.451 66.686 215.739 66.174C216.035 65.654 216.435 65.258 216.939 64.986C217.443 64.706 218.007 64.566 218.631 64.566C219.255 64.566 219.819 64.706 220.323 64.986C220.827 65.258 221.223 65.65 221.511 66.162C221.807 66.674 221.955 67.27 221.955 67.95C221.955 68.63 221.803 69.23 221.499 69.75C221.203 70.262 220.799 70.658 220.287 70.938C219.775 71.218 219.207 71.358 218.583 71.358ZM218.583 70.398C218.975 70.398 219.343 70.306 219.687 70.122C220.031 69.938 220.307 69.662 220.515 69.294C220.731 68.926 220.839 68.478 220.839 67.95C220.839 67.422 220.735 66.974 220.527 66.606C220.319 66.238 220.047 65.966 219.711 65.79C219.375 65.606 219.011 65.514 218.619 65.514C218.219 65.514 217.851 65.606 217.515 65.79C217.187 65.966 216.923 66.238 216.723 66.606C216.523 66.974 216.423 67.422 216.423 67.95C216.423 68.486 216.519 68.938 216.711 69.306C216.911 69.674 217.175 69.95 217.503 70.134C217.831 70.31 218.191 70.398 218.583 70.398ZM222.983 67.938C222.983 67.266 223.119 66.678 223.391 66.174C223.663 65.662 224.035 65.266 224.507 64.986C224.987 64.706 225.519 64.566 226.103 64.566C226.679 64.566 227.179 64.69 227.603 64.938C228.027 65.186 228.343 65.498 228.551 65.874V64.674H229.655V71.25H228.551V70.026C228.335 70.41 228.011 70.73 227.579 70.986C227.155 71.234 226.659 71.358 226.091 71.358C225.507 71.358 224.979 71.214 224.507 70.926C224.035 70.638 223.663 70.234 223.391 69.714C223.119 69.194 222.983 68.602 222.983 67.938ZM228.551 67.95C228.551 67.454 228.451 67.022 228.251 66.654C228.051 66.286 227.779 66.006 227.435 65.814C227.099 65.614 226.727 65.514 226.319 65.514C225.911 65.514 225.539 65.61 225.203 65.802C224.867 65.994 224.599 66.274 224.399 66.642C224.199 67.01 224.099 67.442 224.099 67.938C224.099 68.442 224.199 68.882 224.399 69.258C224.599 69.626 224.867 69.91 225.203 70.11C225.539 70.302 225.911 70.398 226.319 70.398C226.727 70.398 227.099 70.302 227.435 70.11C227.779 69.91 228.051 69.626 228.251 69.258C228.451 68.882 228.551 68.446 228.551 67.95ZM232.064 63.606C231.856 63.606 231.68 63.534 231.536 63.39C231.392 63.246 231.32 63.07 231.32 62.862C231.32 62.654 231.392 62.478 231.536 62.334C231.68 62.19 231.856 62.118 232.064 62.118C232.264 62.118 232.432 62.19 232.568 62.334C232.712 62.478 232.784 62.654 232.784 62.862C232.784 63.07 232.712 63.246 232.568 63.39C232.432 63.534 232.264 63.606 232.064 63.606ZM232.592 64.674V71.25H231.5V64.674H232.592ZM236.781 71.358C236.277 71.358 235.825 71.274 235.425 71.106C235.025 70.93 234.709 70.69 234.477 70.386C234.245 70.074 234.117 69.718 234.093 69.318H235.221C235.253 69.646 235.405 69.914 235.677 70.122C235.957 70.33 236.321 70.434 236.769 70.434C237.185 70.434 237.513 70.342 237.753 70.158C237.993 69.974 238.113 69.742 238.113 69.462C238.113 69.174 237.985 68.962 237.729 68.826C237.473 68.682 237.077 68.542 236.541 68.406C236.053 68.278 235.653 68.15 235.341 68.022C235.037 67.886 234.773 67.69 234.549 67.434C234.333 67.17 234.225 66.826 234.225 66.402C234.225 66.066 234.325 65.758 234.525 65.478C234.725 65.198 235.009 64.978 235.377 64.818C235.745 64.65 236.165 64.566 236.637 64.566C237.365 64.566 237.953 64.75 238.401 65.118C238.849 65.486 239.089 65.99 239.121 66.63H238.029C238.005 66.286 237.865 66.01 237.609 65.802C237.361 65.594 237.025 65.49 236.601 65.49C236.209 65.49 235.897 65.574 235.665 65.742C235.433 65.91 235.317 66.13 235.317 66.402C235.317 66.618 235.385 66.798 235.521 66.942C235.665 67.078 235.841 67.19 236.049 67.278C236.265 67.358 236.561 67.45 236.937 67.554C237.409 67.682 237.793 67.81 238.089 67.938C238.385 68.058 238.637 68.242 238.845 68.49C239.061 68.738 239.173 69.062 239.181 69.462C239.181 69.822 239.081 70.146 238.881 70.434C238.681 70.722 238.397 70.95 238.029 71.118C237.669 71.278 237.253 71.358 236.781 71.358Z" fill="#C8C8D0"/>
<circle cx="341.83" cy="16.25" r="15.5" fill="#548AC6" stroke="#548AC6"/>
<path d="M337.79 13.594C337.865 12.6126 338.243 11.8446 338.926 11.29C339.609 10.7353 340.494 10.458 341.582 10.458C342.307 10.458 342.931 10.5913 343.454 10.858C343.987 11.114 344.387 11.466 344.654 11.914C344.931 12.362 345.07 12.8686 345.07 13.434C345.07 14.0953 344.878 14.666 344.494 15.146C344.121 15.626 343.63 15.9353 343.022 16.074V16.154C343.715 16.3246 344.265 16.6606 344.67 17.162C345.075 17.6633 345.278 18.3193 345.278 19.13C345.278 19.738 345.139 20.2873 344.862 20.778C344.585 21.258 344.169 21.6366 343.614 21.914C343.059 22.1913 342.393 22.33 341.614 22.33C340.483 22.33 339.555 22.0366 338.83 21.45C338.105 20.8526 337.699 20.01 337.614 18.922H339.022C339.097 19.562 339.358 20.0846 339.806 20.49C340.254 20.8953 340.851 21.098 341.598 21.098C342.345 21.098 342.91 20.906 343.294 20.522C343.689 20.1273 343.886 19.6206 343.886 19.002C343.886 18.202 343.619 17.626 343.086 17.274C342.553 16.922 341.747 16.746 340.67 16.746H340.302V15.53H340.686C341.667 15.5193 342.409 15.3593 342.91 15.05C343.411 14.73 343.662 14.2393 343.662 13.578C343.662 13.0126 343.475 12.5593 343.102 12.218C342.739 11.8766 342.217 11.706 341.534 11.706C340.873 11.706 340.339 11.8766 339.934 12.218C339.529 12.5593 339.289 13.018 339.214 13.594H337.79Z" fill="white"/>
<path d="M300.581 44.886C301.493 44.886 302.281 45.058 302.945 45.402C303.617 45.738 304.129 46.222 304.481 46.854C304.841 47.486 305.021 48.23 305.021 49.086C305.021 49.942 304.841 50.686 304.481 51.318C304.129 51.942 303.617 52.422 302.945 52.758C302.281 53.086 301.493 53.25 300.581 53.25H297.977V44.886H300.581ZM300.581 52.35C301.661 52.35 302.485 52.066 303.053 51.498C303.621 50.922 303.905 50.118 303.905 49.086C303.905 48.046 303.617 47.234 303.041 46.65C302.473 46.066 301.653 45.774 300.581 45.774H299.069V52.35H300.581ZM306.053 49.938C306.053 49.266 306.189 48.678 306.461 48.174C306.733 47.662 307.105 47.266 307.577 46.986C308.057 46.706 308.589 46.566 309.173 46.566C309.749 46.566 310.249 46.69 310.673 46.938C311.097 47.186 311.413 47.498 311.621 47.874V46.674H312.725V53.25H311.621V52.026C311.405 52.41 311.081 52.73 310.649 52.986C310.225 53.234 309.729 53.358 309.161 53.358C308.577 53.358 308.049 53.214 307.577 52.926C307.105 52.638 306.733 52.234 306.461 51.714C306.189 51.194 306.053 50.602 306.053 49.938ZM311.621 49.95C311.621 49.454 311.521 49.022 311.321 48.654C311.121 48.286 310.849 48.006 310.505 47.814C310.169 47.614 309.797 47.514 309.389 47.514C308.981 47.514 308.609 47.61 308.273 47.802C307.937 47.994 307.669 48.274 307.469 48.642C307.269 49.01 307.169 49.442 307.169 49.938C307.169 50.442 307.269 50.882 307.469 51.258C307.669 51.626 307.937 51.91 308.273 52.11C308.609 52.302 308.981 52.398 309.389 52.398C309.797 52.398 310.169 52.302 310.505 52.11C310.849 51.91 311.121 51.626 311.321 51.258C311.521 50.882 311.621 50.446 311.621 49.95ZM314.162 49.938C314.162 49.266 314.298 48.678 314.57 48.174C314.842 47.662 315.214 47.266 315.686 46.986C316.166 46.706 316.702 46.566 317.294 46.566C317.806 46.566 318.282 46.686 318.722 46.926C319.162 47.158 319.498 47.466 319.73 47.85V44.37H320.834V53.25H319.73V52.014C319.514 52.406 319.194 52.73 318.77 52.986C318.346 53.234 317.85 53.358 317.282 53.358C316.698 53.358 316.166 53.214 315.686 52.926C315.214 52.638 314.842 52.234 314.57 51.714C314.298 51.194 314.162 50.602 314.162 49.938ZM319.73 49.95C319.73 49.454 319.63 49.022 319.43 48.654C319.23 48.286 318.958 48.006 318.614 47.814C318.278 47.614 317.906 47.514 317.498 47.514C317.09 47.514 316.718 47.61 316.382 47.802C316.046 47.994 315.778 48.274 315.578 48.642C315.378 49.01 315.278 49.442 315.278 49.938C315.278 50.442 315.378 50.882 315.578 51.258C315.778 51.626 316.046 51.91 316.382 52.11C316.718 52.302 317.09 52.398 317.498 52.398C317.906 52.398 318.278 52.302 318.614 52.11C318.958 51.91 319.23 51.626 319.43 51.258C319.63 50.882 319.73 50.446 319.73 49.95ZM325.548 53.358C324.932 53.358 324.372 53.218 323.868 52.938C323.372 52.658 322.98 52.262 322.692 51.75C322.412 51.23 322.272 50.63 322.272 49.95C322.272 49.278 322.416 48.686 322.704 48.174C323 47.654 323.4 47.258 323.904 46.986C324.408 46.706 324.972 46.566 325.596 46.566C326.22 46.566 326.784 46.706 327.288 46.986C327.792 47.258 328.188 47.65 328.476 48.162C328.772 48.674 328.92 49.27 328.92 49.95C328.92 50.63 328.768 51.23 328.464 51.75C328.168 52.262 327.764 52.658 327.252 52.938C326.74 53.218 326.172 53.358 325.548 53.358ZM325.548 52.398C325.94 52.398 326.308 52.306 326.652 52.122C326.996 51.938 327.272 51.662 327.48 51.294C327.696 50.926 327.804 50.478 327.804 49.95C327.804 49.422 327.7 48.974 327.492 48.606C327.284 48.238 327.012 47.966 326.676 47.79C326.34 47.606 325.976 47.514 325.584 47.514C325.184 47.514 324.816 47.606 324.48 47.79C324.152 47.966 323.888 48.238 323.688 48.606C323.488 48.974 323.388 49.422 323.388 49.95C323.388 50.486 323.484 50.938 323.676 51.306C323.876 51.674 324.14 51.95 324.468 52.134C324.796 52.31 325.156 52.398 325.548 52.398ZM332.684 53.358C332.18 53.358 331.728 53.274 331.328 53.106C330.928 52.93 330.612 52.69 330.38 52.386C330.148 52.074 330.02 51.718 329.996 51.318H331.124C331.156 51.646 331.308 51.914 331.58 52.122C331.86 52.33 332.224 52.434 332.672 52.434C333.088 52.434 333.416 52.342 333.656 52.158C333.896 51.974 334.016 51.742 334.016 51.462C334.016 51.174 333.888 50.962 333.632 50.826C333.376 50.682 332.98 50.542 332.444 50.406C331.956 50.278 331.556 50.15 331.244 50.022C330.94 49.886 330.676 49.69 330.452 49.434C330.236 49.17 330.128 48.826 330.128 48.402C330.128 48.066 330.228 47.758 330.428 47.478C330.628 47.198 330.912 46.978 331.28 46.818C331.648 46.65 332.068 46.566 332.54 46.566C333.268 46.566 333.856 46.75 334.304 47.118C334.752 47.486 334.992 47.99 335.024 48.63H333.932C333.908 48.286 333.768 48.01 333.512 47.802C333.264 47.594 332.928 47.49 332.504 47.49C332.112 47.49 331.8 47.574 331.568 47.742C331.336 47.91 331.22 48.13 331.22 48.402C331.22 48.618 331.288 48.798 331.424 48.942C331.568 49.078 331.744 49.19 331.952 49.278C332.168 49.358 332.464 49.45 332.84 49.554C333.312 49.682 333.696 49.81 333.992 49.938C334.288 50.058 334.54 50.242 334.748 50.49C334.964 50.738 335.076 51.062 335.084 51.462C335.084 51.822 334.984 52.146 334.784 52.434C334.584 52.722 334.3 52.95 333.932 53.118C333.572 53.278 333.156 53.358 332.684 53.358ZM339.416 49.938C339.416 49.266 339.552 48.678 339.824 48.174C340.096 47.662 340.468 47.266 340.94 46.986C341.42 46.706 341.956 46.566 342.548 46.566C343.06 46.566 343.536 46.686 343.976 46.926C344.416 47.158 344.752 47.466 344.984 47.85V44.37H346.088V53.25H344.984V52.014C344.768 52.406 344.448 52.73 344.024 52.986C343.6 53.234 343.104 53.358 342.536 53.358C341.952 53.358 341.42 53.214 340.94 52.926C340.468 52.638 340.096 52.234 339.824 51.714C339.552 51.194 339.416 50.602 339.416 49.938ZM344.984 49.95C344.984 49.454 344.884 49.022 344.684 48.654C344.484 48.286 344.212 48.006 343.868 47.814C343.532 47.614 343.16 47.514 342.752 47.514C342.344 47.514 341.972 47.61 341.636 47.802C341.3 47.994 341.032 48.274 340.832 48.642C340.632 49.01 340.532 49.442 340.532 49.938C340.532 50.442 340.632 50.882 340.832 51.258C341.032 51.626 341.3 51.91 341.636 52.11C341.972 52.302 342.344 52.398 342.752 52.398C343.16 52.398 343.532 52.302 343.868 52.11C344.212 51.91 344.484 51.626 344.684 51.258C344.884 50.882 344.984 50.446 344.984 49.95ZM350.802 53.358C350.186 53.358 349.626 53.218 349.122 52.938C348.626 52.658 348.234 52.262 347.946 51.75C347.666 51.23 347.526 50.63 347.526 49.95C347.526 49.278 347.67 48.686 347.958 48.174C348.254 47.654 348.654 47.258 349.158 46.986C349.662 46.706 350.226 46.566 350.85 46.566C351.474 46.566 352.038 46.706 352.542 46.986C353.046 47.258 353.442 47.65 353.73 48.162C354.026 48.674 354.174 49.27 354.174 49.95C354.174 50.63 354.022 51.23 353.718 51.75C353.422 52.262 353.018 52.658 352.506 52.938C351.994 53.218 351.426 53.358 350.802 53.358ZM350.802 52.398C351.194 52.398 351.562 52.306 351.906 52.122C352.25 51.938 352.526 51.662 352.734 51.294C352.95 50.926 353.058 50.478 353.058 49.95C353.058 49.422 352.954 48.974 352.746 48.606C352.538 48.238 352.266 47.966 351.93 47.79C351.594 47.606 351.23 47.514 350.838 47.514C350.438 47.514 350.07 47.606 349.734 47.79C349.406 47.966 349.142 48.238 348.942 48.606C348.742 48.974 348.642 49.422 348.642 49.95C348.642 50.486 348.738 50.938 348.93 51.306C349.13 51.674 349.394 51.95 349.722 52.134C350.05 52.31 350.41 52.398 350.802 52.398ZM364.401 47.334C364.401 48.03 364.161 48.61 363.681 49.074C363.209 49.53 362.485 49.758 361.509 49.758H359.901V53.25H358.809V44.886H361.509C362.453 44.886 363.169 45.114 363.657 45.57C364.153 46.026 364.401 46.614 364.401 47.334ZM361.509 48.858C362.117 48.858 362.565 48.726 362.853 48.462C363.141 48.198 363.285 47.822 363.285 47.334C363.285 46.302 362.693 45.786 361.509 45.786H359.901V48.858H361.509ZM371.758 49.71C371.758 49.918 371.746 50.138 371.722 50.37H366.466C366.506 51.018 366.726 51.526 367.126 51.894C367.534 52.254 368.026 52.434 368.602 52.434C369.074 52.434 369.466 52.326 369.778 52.11C370.098 51.886 370.322 51.59 370.45 51.222H371.626C371.45 51.854 371.098 52.37 370.57 52.77C370.042 53.162 369.386 53.358 368.602 53.358C367.978 53.358 367.418 53.218 366.922 52.938C366.434 52.658 366.05 52.262 365.77 51.75C365.49 51.23 365.35 50.63 365.35 49.95C365.35 49.27 365.486 48.674 365.758 48.162C366.03 47.65 366.41 47.258 366.898 46.986C367.394 46.706 367.962 46.566 368.602 46.566C369.226 46.566 369.778 46.702 370.258 46.974C370.738 47.246 371.106 47.622 371.362 48.102C371.626 48.574 371.758 49.11 371.758 49.71ZM370.63 49.482C370.63 49.066 370.538 48.71 370.354 48.414C370.17 48.11 369.918 47.882 369.598 47.73C369.286 47.57 368.938 47.49 368.554 47.49C368.002 47.49 367.53 47.666 367.138 48.018C366.754 48.37 366.534 48.858 366.478 49.482H370.63ZM374.291 47.742C374.483 47.366 374.755 47.074 375.107 46.866C375.467 46.658 375.903 46.554 376.415 46.554V47.682H376.127C374.903 47.682 374.291 48.346 374.291 49.674V53.25H373.199V46.674H374.291V47.742ZM380.352 47.574H378.972V53.25H377.88V47.574H377.028V46.674H377.88V46.206C377.88 45.47 378.068 44.934 378.444 44.598C378.828 44.254 379.44 44.082 380.28 44.082V44.994C379.8 44.994 379.46 45.09 379.26 45.282C379.068 45.466 378.972 45.774 378.972 46.206V46.674H380.352V47.574ZM382.189 45.606C381.981 45.606 381.805 45.534 381.661 45.39C381.517 45.246 381.445 45.07 381.445 44.862C381.445 44.654 381.517 44.478 381.661 44.334C381.805 44.19 381.981 44.118 382.189 44.118C382.389 44.118 382.557 44.19 382.693 44.334C382.837 44.478 382.909 44.654 382.909 44.862C382.909 45.07 382.837 45.246 382.693 45.39C382.557 45.534 382.389 45.606 382.189 45.606ZM382.717 46.674V53.25H381.625V46.674H382.717ZM385.67 44.37V53.25H384.578V44.37H385.67Z" fill="#C8C8D0"/>
</svg>
