<svg width="447" height="76" viewBox="0 0 447 76" fill="none" xmlns="http://www.w3.org/2000/svg">
<line x1="7.87975e-08" y1="15" x2="447" y2="15" stroke="#D4D4D8" stroke-width="2"/>
<circle cx="82.3845" cy="16" r="15.5" fill="white" stroke="#D4D4D8"/>
<path d="M79.9925 11.76V10.432H83.0005V22H81.5285V11.76H79.9925Z" fill="#548AC6"/>
<path d="M46.3159 44.636V45.524H44.0359V53H42.9439V45.524H40.6519V44.636H46.3159ZM48.2241 45.356C48.0161 45.356 47.8401 45.284 47.6961 45.14C47.5521 44.996 47.4801 44.82 47.4801 44.612C47.4801 44.404 47.5521 44.228 47.6961 44.084C47.8401 43.94 48.0161 43.868 48.2241 43.868C48.4241 43.868 48.5921 43.94 48.7281 44.084C48.8721 44.228 48.9441 44.404 48.9441 44.612C48.9441 44.82 48.8721 44.996 48.7281 45.14C48.5921 45.284 48.4241 45.356 48.2241 45.356ZM48.7521 46.424V53H47.6601V46.424H48.7521ZM51.7052 47.636C51.9212 47.26 52.2412 46.948 52.6652 46.7C53.0972 46.444 53.5972 46.316 54.1652 46.316C54.7492 46.316 55.2772 46.456 55.7492 46.736C56.2292 47.016 56.6052 47.412 56.8772 47.924C57.1492 48.428 57.2852 49.016 57.2852 49.688C57.2852 50.352 57.1492 50.944 56.8772 51.464C56.6052 51.984 56.2292 52.388 55.7492 52.676C55.2772 52.964 54.7492 53.108 54.1652 53.108C53.6052 53.108 53.1092 52.984 52.6772 52.736C52.2532 52.48 51.9292 52.164 51.7052 51.788V56.12H50.6132V46.424H51.7052V47.636ZM56.1692 49.688C56.1692 49.192 56.0692 48.76 55.8692 48.392C55.6692 48.024 55.3972 47.744 55.0532 47.552C54.7172 47.36 54.3452 47.264 53.9372 47.264C53.5372 47.264 53.1652 47.364 52.8212 47.564C52.4852 47.756 52.2132 48.04 52.0052 48.416C51.8052 48.784 51.7052 49.212 51.7052 49.7C51.7052 50.196 51.8052 50.632 52.0052 51.008C52.2132 51.376 52.4852 51.66 52.8212 51.86C53.1652 52.052 53.5372 52.148 53.9372 52.148C54.3452 52.148 54.7172 52.052 55.0532 51.86C55.3972 51.66 55.6692 51.376 55.8692 51.008C56.0692 50.632 56.1692 50.192 56.1692 49.688ZM61.5906 53.108C60.9746 53.108 60.4146 52.968 59.9106 52.688C59.4146 52.408 59.0226 52.012 58.7346 51.5C58.4546 50.98 58.3146 50.38 58.3146 49.7C58.3146 49.028 58.4586 48.436 58.7466 47.924C59.0426 47.404 59.4426 47.008 59.9466 46.736C60.4506 46.456 61.0146 46.316 61.6386 46.316C62.2626 46.316 62.8266 46.456 63.3306 46.736C63.8346 47.008 64.2306 47.4 64.5186 47.912C64.8146 48.424 64.9626 49.02 64.9626 49.7C64.9626 50.38 64.8106 50.98 64.5066 51.5C64.2106 52.012 63.8066 52.408 63.2946 52.688C62.7826 52.968 62.2146 53.108 61.5906 53.108ZM61.5906 52.148C61.9826 52.148 62.3506 52.056 62.6946 51.872C63.0386 51.688 63.3146 51.412 63.5226 51.044C63.7386 50.676 63.8466 50.228 63.8466 49.7C63.8466 49.172 63.7426 48.724 63.5346 48.356C63.3266 47.988 63.0546 47.716 62.7186 47.54C62.3826 47.356 62.0186 47.264 61.6266 47.264C61.2266 47.264 60.8586 47.356 60.5226 47.54C60.1946 47.716 59.9306 47.988 59.7306 48.356C59.5306 48.724 59.4306 49.172 59.4306 49.7C59.4306 50.236 59.5266 50.688 59.7186 51.056C59.9186 51.424 60.1826 51.7 60.5106 51.884C60.8386 52.06 61.1986 52.148 61.5906 52.148ZM69.1896 49.688C69.1896 49.016 69.3256 48.428 69.5976 47.924C69.8696 47.412 70.2416 47.016 70.7136 46.736C71.1936 46.456 71.7296 46.316 72.3216 46.316C72.8336 46.316 73.3096 46.436 73.7496 46.676C74.1896 46.908 74.5256 47.216 74.7576 47.6V44.12H75.8616V53H74.7576V51.764C74.5416 52.156 74.2216 52.48 73.7976 52.736C73.3736 52.984 72.8776 53.108 72.3096 53.108C71.7256 53.108 71.1936 52.964 70.7136 52.676C70.2416 52.388 69.8696 51.984 69.5976 51.464C69.3256 50.944 69.1896 50.352 69.1896 49.688ZM74.7576 49.7C74.7576 49.204 74.6576 48.772 74.4576 48.404C74.2576 48.036 73.9856 47.756 73.6416 47.564C73.3056 47.364 72.9336 47.264 72.5256 47.264C72.1176 47.264 71.7456 47.36 71.4096 47.552C71.0736 47.744 70.8056 48.024 70.6056 48.392C70.4056 48.76 70.3056 49.192 70.3056 49.688C70.3056 50.192 70.4056 50.632 70.6056 51.008C70.8056 51.376 71.0736 51.66 71.4096 51.86C71.7456 52.052 72.1176 52.148 72.5256 52.148C72.9336 52.148 73.3056 52.052 73.6416 51.86C73.9856 51.66 74.2576 51.376 74.4576 51.008C74.6576 50.632 74.7576 50.196 74.7576 49.7ZM83.707 49.46C83.707 49.668 83.695 49.888 83.671 50.12H78.415C78.455 50.768 78.675 51.276 79.075 51.644C79.483 52.004 79.975 52.184 80.551 52.184C81.023 52.184 81.415 52.076 81.727 51.86C82.047 51.636 82.271 51.34 82.399 50.972H83.575C83.399 51.604 83.047 52.12 82.519 52.52C81.991 52.912 81.335 53.108 80.551 53.108C79.927 53.108 79.367 52.968 78.871 52.688C78.383 52.408 77.999 52.012 77.719 51.5C77.439 50.98 77.299 50.38 77.299 49.7C77.299 49.02 77.435 48.424 77.707 47.912C77.979 47.4 78.359 47.008 78.847 46.736C79.343 46.456 79.911 46.316 80.551 46.316C81.175 46.316 81.727 46.452 82.207 46.724C82.687 46.996 83.055 47.372 83.311 47.852C83.575 48.324 83.707 48.86 83.707 49.46ZM82.579 49.232C82.579 48.816 82.487 48.46 82.303 48.164C82.119 47.86 81.867 47.632 81.547 47.48C81.235 47.32 80.887 47.24 80.503 47.24C79.951 47.24 79.479 47.416 79.087 47.768C78.703 48.12 78.483 48.608 78.427 49.232H82.579ZM87.9396 48.812C87.9396 47.996 88.1236 47.264 88.4916 46.616C88.8596 45.96 89.3596 45.448 89.9916 45.08C90.6316 44.712 91.3396 44.528 92.1156 44.528C93.0276 44.528 93.8236 44.748 94.5036 45.188C95.1836 45.628 95.6796 46.252 95.9916 47.06H94.6836C94.4516 46.556 94.1156 46.168 93.6756 45.896C93.2436 45.624 92.7236 45.488 92.1156 45.488C91.5316 45.488 91.0076 45.624 90.5436 45.896C90.0796 46.168 89.7156 46.556 89.4516 47.06C89.1876 47.556 89.0556 48.14 89.0556 48.812C89.0556 49.476 89.1876 50.06 89.4516 50.564C89.7156 51.06 90.0796 51.444 90.5436 51.716C91.0076 51.988 91.5316 52.124 92.1156 52.124C92.7236 52.124 93.2436 51.992 93.6756 51.728C94.1156 51.456 94.4516 51.068 94.6836 50.564H95.9916C95.6796 51.364 95.1836 51.984 94.5036 52.424C93.8236 52.856 93.0276 53.072 92.1156 53.072C91.3396 53.072 90.6316 52.892 89.9916 52.532C89.3596 52.164 88.8596 51.656 88.4916 51.008C88.1236 50.36 87.9396 49.628 87.9396 48.812ZM100.485 53.108C99.8691 53.108 99.3091 52.968 98.8051 52.688C98.3091 52.408 97.9171 52.012 97.6291 51.5C97.3491 50.98 97.2091 50.38 97.2091 49.7C97.2091 49.028 97.3531 48.436 97.6411 47.924C97.9371 47.404 98.3371 47.008 98.8411 46.736C99.3451 46.456 99.9091 46.316 100.533 46.316C101.157 46.316 101.721 46.456 102.225 46.736C102.729 47.008 103.125 47.4 103.413 47.912C103.709 48.424 103.857 49.02 103.857 49.7C103.857 50.38 103.705 50.98 103.401 51.5C103.105 52.012 102.701 52.408 102.189 52.688C101.677 52.968 101.109 53.108 100.485 53.108ZM100.485 52.148C100.877 52.148 101.245 52.056 101.589 51.872C101.933 51.688 102.209 51.412 102.417 51.044C102.633 50.676 102.741 50.228 102.741 49.7C102.741 49.172 102.637 48.724 102.429 48.356C102.221 47.988 101.949 47.716 101.613 47.54C101.277 47.356 100.913 47.264 100.521 47.264C100.121 47.264 99.7531 47.356 99.4171 47.54C99.0891 47.716 98.8251 47.988 98.6251 48.356C98.4251 48.724 98.3251 49.172 98.3251 49.7C98.3251 50.236 98.4211 50.688 98.6131 51.056C98.8131 51.424 99.0771 51.7 99.4051 51.884C99.7331 52.06 100.093 52.148 100.485 52.148ZM108.497 46.304C109.297 46.304 109.945 46.548 110.441 47.036C110.937 47.516 111.185 48.212 111.185 49.124V53H110.105V49.28C110.105 48.624 109.941 48.124 109.613 47.78C109.285 47.428 108.837 47.252 108.269 47.252C107.693 47.252 107.233 47.432 106.889 47.792C106.553 48.152 106.385 48.676 106.385 49.364V53H105.293V46.424H106.385V47.36C106.601 47.024 106.893 46.764 107.261 46.58C107.637 46.396 108.049 46.304 108.497 46.304ZM114.301 47.324V51.2C114.301 51.52 114.369 51.748 114.505 51.884C114.641 52.012 114.877 52.076 115.213 52.076H116.017V53H115.033C114.425 53 113.969 52.86 113.665 52.58C113.361 52.3 113.209 51.84 113.209 51.2V47.324H112.357V46.424H113.209V44.768H114.301V46.424H116.017V47.324H114.301ZM116.932 49.688C116.932 49.016 117.068 48.428 117.34 47.924C117.612 47.412 117.984 47.016 118.456 46.736C118.936 46.456 119.468 46.316 120.052 46.316C120.628 46.316 121.128 46.44 121.552 46.688C121.976 46.936 122.292 47.248 122.5 47.624V46.424H123.604V53H122.5V51.776C122.284 52.16 121.96 52.48 121.528 52.736C121.104 52.984 120.608 53.108 120.04 53.108C119.456 53.108 118.928 52.964 118.456 52.676C117.984 52.388 117.612 51.984 117.34 51.464C117.068 50.944 116.932 50.352 116.932 49.688ZM122.5 49.7C122.5 49.204 122.4 48.772 122.2 48.404C122 48.036 121.728 47.756 121.384 47.564C121.048 47.364 120.676 47.264 120.268 47.264C119.86 47.264 119.488 47.36 119.152 47.552C118.816 47.744 118.548 48.024 118.348 48.392C118.148 48.76 118.048 49.192 118.048 49.688C118.048 50.192 118.148 50.632 118.348 51.008C118.548 51.376 118.816 51.66 119.152 51.86C119.488 52.052 119.86 52.148 120.268 52.148C120.676 52.148 121.048 52.052 121.384 51.86C121.728 51.66 122 51.376 122.2 51.008C122.4 50.632 122.5 50.196 122.5 49.7Z" fill="#C8C8D0"/>
<circle cx="210.385" cy="16" r="15.5" fill="#548AC6" stroke="#548AC6"/>
<path d="M206.201 20.832C207.555 19.744 208.617 18.8533 209.385 18.16C210.153 17.456 210.798 16.7253 211.321 15.968C211.854 15.2 212.121 14.448 212.121 13.712C212.121 13.0186 211.95 12.4746 211.609 12.08C211.278 11.6746 210.739 11.472 209.993 11.472C209.267 11.472 208.702 11.7013 208.297 12.16C207.902 12.608 207.689 13.2106 207.657 13.968H206.249C206.291 12.7733 206.654 11.8506 207.337 11.2C208.019 10.5493 208.899 10.224 209.977 10.224C211.075 10.224 211.945 10.528 212.585 11.136C213.235 11.744 213.561 12.5813 213.561 13.648C213.561 14.5333 213.294 15.3973 212.761 16.24C212.238 17.072 211.641 17.808 210.969 18.448C210.297 19.0773 209.438 19.8133 208.393 20.656H213.897V21.872H206.201V20.832Z" fill="white"/>
<path d="M174.461 44.636V53H173.369V44.636H174.461ZM179.526 46.304C180.326 46.304 180.974 46.548 181.47 47.036C181.966 47.516 182.214 48.212 182.214 49.124V53H181.134V49.28C181.134 48.624 180.97 48.124 180.642 47.78C180.314 47.428 179.866 47.252 179.298 47.252C178.722 47.252 178.262 47.432 177.918 47.792C177.582 48.152 177.414 48.676 177.414 49.364V53H176.322V46.424H177.414V47.36C177.63 47.024 177.922 46.764 178.29 46.58C178.666 46.396 179.078 46.304 179.526 46.304ZM186.674 47.324H185.294V53H184.202V47.324H183.35V46.424H184.202V45.956C184.202 45.22 184.39 44.684 184.766 44.348C185.15 44.004 185.762 43.832 186.602 43.832V44.744C186.122 44.744 185.782 44.84 185.582 45.032C185.39 45.216 185.294 45.524 185.294 45.956V46.424H186.674V47.324ZM190.815 53.108C190.199 53.108 189.639 52.968 189.135 52.688C188.639 52.408 188.247 52.012 187.959 51.5C187.679 50.98 187.539 50.38 187.539 49.7C187.539 49.028 187.683 48.436 187.971 47.924C188.267 47.404 188.667 47.008 189.171 46.736C189.675 46.456 190.239 46.316 190.863 46.316C191.487 46.316 192.051 46.456 192.555 46.736C193.059 47.008 193.455 47.4 193.743 47.912C194.039 48.424 194.187 49.02 194.187 49.7C194.187 50.38 194.035 50.98 193.731 51.5C193.435 52.012 193.031 52.408 192.519 52.688C192.007 52.968 191.439 53.108 190.815 53.108ZM190.815 52.148C191.207 52.148 191.575 52.056 191.919 51.872C192.263 51.688 192.539 51.412 192.747 51.044C192.963 50.676 193.071 50.228 193.071 49.7C193.071 49.172 192.967 48.724 192.759 48.356C192.551 47.988 192.279 47.716 191.943 47.54C191.607 47.356 191.243 47.264 190.851 47.264C190.451 47.264 190.083 47.356 189.747 47.54C189.419 47.716 189.155 47.988 188.955 48.356C188.755 48.724 188.655 49.172 188.655 49.7C188.655 50.236 188.751 50.688 188.943 51.056C189.143 51.424 189.407 51.7 189.735 51.884C190.063 52.06 190.423 52.148 190.815 52.148ZM196.715 47.492C196.907 47.116 197.179 46.824 197.531 46.616C197.891 46.408 198.327 46.304 198.839 46.304V47.432H198.551C197.327 47.432 196.715 48.096 196.715 49.424V53H195.623V46.424H196.715V47.492ZM208.008 46.304C208.52 46.304 208.976 46.412 209.376 46.628C209.776 46.836 210.092 47.152 210.324 47.576C210.556 48 210.672 48.516 210.672 49.124V53H209.592V49.28C209.592 48.624 209.428 48.124 209.1 47.78C208.78 47.428 208.344 47.252 207.792 47.252C207.224 47.252 206.772 47.436 206.436 47.804C206.1 48.164 205.932 48.688 205.932 49.376V53H204.852V49.28C204.852 48.624 204.688 48.124 204.36 47.78C204.04 47.428 203.604 47.252 203.052 47.252C202.484 47.252 202.032 47.436 201.696 47.804C201.36 48.164 201.192 48.688 201.192 49.376V53H200.1V46.424H201.192V47.372C201.408 47.028 201.696 46.764 202.056 46.58C202.424 46.396 202.828 46.304 203.268 46.304C203.82 46.304 204.308 46.428 204.732 46.676C205.156 46.924 205.472 47.288 205.68 47.768C205.864 47.304 206.168 46.944 206.592 46.688C207.016 46.432 207.488 46.304 208.008 46.304ZM212.055 49.688C212.055 49.016 212.191 48.428 212.463 47.924C212.735 47.412 213.107 47.016 213.579 46.736C214.059 46.456 214.591 46.316 215.175 46.316C215.751 46.316 216.251 46.44 216.675 46.688C217.099 46.936 217.415 47.248 217.623 47.624V46.424H218.727V53H217.623V51.776C217.407 52.16 217.083 52.48 216.651 52.736C216.227 52.984 215.731 53.108 215.163 53.108C214.579 53.108 214.051 52.964 213.579 52.676C213.107 52.388 212.735 51.984 212.463 51.464C212.191 50.944 212.055 50.352 212.055 49.688ZM217.623 49.7C217.623 49.204 217.523 48.772 217.323 48.404C217.123 48.036 216.851 47.756 216.507 47.564C216.171 47.364 215.799 47.264 215.391 47.264C214.983 47.264 214.611 47.36 214.275 47.552C213.939 47.744 213.671 48.024 213.471 48.392C213.271 48.76 213.171 49.192 213.171 49.688C213.171 50.192 213.271 50.632 213.471 51.008C213.671 51.376 213.939 51.66 214.275 51.86C214.611 52.052 214.983 52.148 215.391 52.148C215.799 52.148 216.171 52.052 216.507 51.86C216.851 51.66 217.123 51.376 217.323 51.008C217.523 50.632 217.623 50.196 217.623 49.7ZM223.368 52.184C223.848 52.184 224.248 52.072 224.568 51.848C224.888 51.624 225.108 51.304 225.228 50.888H226.404C226.244 51.512 225.928 52.024 225.456 52.424C224.992 52.816 224.408 53.04 223.704 53.096V53.696C224.176 53.688 224.552 53.788 224.832 53.996C225.112 54.204 225.252 54.5 225.252 54.884C225.252 55.26 225.116 55.56 224.844 55.784C224.572 56.008 224.22 56.12 223.788 56.12H222.408V55.412H223.572C223.836 55.412 224.028 55.372 224.148 55.292C224.276 55.212 224.34 55.076 224.34 54.884C224.34 54.7 224.276 54.568 224.148 54.488C224.028 54.408 223.836 54.368 223.572 54.368H222.972V53.084C222.42 53.028 221.932 52.856 221.508 52.568C221.084 52.272 220.752 51.88 220.512 51.392C220.28 50.896 220.164 50.332 220.164 49.7C220.164 49.02 220.3 48.428 220.572 47.924C220.844 47.412 221.22 47.016 221.7 46.736C222.188 46.456 222.744 46.316 223.368 46.316C224.176 46.316 224.84 46.512 225.36 46.904C225.888 47.296 226.236 47.84 226.404 48.536H225.228C225.116 48.136 224.896 47.82 224.568 47.588C224.248 47.356 223.848 47.24 223.368 47.24C222.744 47.24 222.24 47.456 221.856 47.888C221.472 48.312 221.28 48.916 221.28 49.7C221.28 50.492 221.472 51.104 221.856 51.536C222.24 51.968 222.744 52.184 223.368 52.184ZM230.729 53.108C230.113 53.108 229.553 52.968 229.049 52.688C228.553 52.408 228.161 52.012 227.873 51.5C227.593 50.98 227.453 50.38 227.453 49.7C227.453 49.028 227.597 48.436 227.885 47.924C228.181 47.404 228.581 47.008 229.085 46.736C229.589 46.456 230.153 46.316 230.777 46.316C231.401 46.316 231.965 46.456 232.469 46.736C232.973 47.008 233.369 47.4 233.657 47.912C233.953 48.424 234.101 49.02 234.101 49.7C234.101 50.38 233.949 50.98 233.645 51.5C233.349 52.012 232.945 52.408 232.433 52.688C231.921 52.968 231.353 53.108 230.729 53.108ZM230.729 52.148C231.121 52.148 231.489 52.056 231.833 51.872C232.177 51.688 232.453 51.412 232.661 51.044C232.877 50.676 232.985 50.228 232.985 49.7C232.985 49.172 232.881 48.724 232.673 48.356C232.465 47.988 232.193 47.716 231.857 47.54C231.521 47.356 231.157 47.264 230.765 47.264C230.365 47.264 229.997 47.356 229.661 47.54C229.333 47.716 229.069 47.988 228.869 48.356C228.669 48.724 228.569 49.172 228.569 49.7C228.569 50.236 228.665 50.688 228.857 51.056C229.057 51.424 229.321 51.7 229.649 51.884C229.977 52.06 230.337 52.148 230.729 52.148ZM229.025 45.632C229.081 45.224 229.213 44.912 229.421 44.696C229.637 44.48 229.905 44.372 230.225 44.372C230.377 44.372 230.505 44.4 230.609 44.456C230.721 44.504 230.853 44.576 231.005 44.672C231.117 44.752 231.217 44.816 231.305 44.864C231.393 44.904 231.489 44.924 231.593 44.924C231.729 44.924 231.845 44.88 231.941 44.792C232.037 44.704 232.097 44.576 232.121 44.408H232.745C232.697 44.808 232.565 45.116 232.349 45.332C232.133 45.548 231.865 45.656 231.545 45.656C231.393 45.656 231.257 45.632 231.137 45.584C231.025 45.528 230.897 45.448 230.753 45.344C230.625 45.264 230.521 45.204 230.441 45.164C230.369 45.124 230.281 45.104 230.177 45.104C230.041 45.104 229.925 45.148 229.829 45.236C229.741 45.324 229.685 45.456 229.661 45.632H229.025ZM241.537 49.46C241.537 49.668 241.525 49.888 241.501 50.12H236.245C236.285 50.768 236.505 51.276 236.905 51.644C237.313 52.004 237.805 52.184 238.381 52.184C238.853 52.184 239.245 52.076 239.557 51.86C239.877 51.636 240.101 51.34 240.229 50.972H241.405C241.229 51.604 240.877 52.12 240.349 52.52C239.821 52.912 239.165 53.108 238.381 53.108C237.757 53.108 237.197 52.968 236.701 52.688C236.213 52.408 235.829 52.012 235.549 51.5C235.269 50.98 235.129 50.38 235.129 49.7C235.129 49.02 235.265 48.424 235.537 47.912C235.809 47.4 236.189 47.008 236.677 46.736C237.173 46.456 237.741 46.316 238.381 46.316C239.005 46.316 239.557 46.452 240.037 46.724C240.517 46.996 240.885 47.372 241.141 47.852C241.405 48.324 241.537 48.86 241.537 49.46ZM240.409 49.232C240.409 48.816 240.317 48.46 240.133 48.164C239.949 47.86 239.697 47.632 239.377 47.48C239.065 47.32 238.717 47.24 238.333 47.24C237.781 47.24 237.309 47.416 236.917 47.768C236.533 48.12 236.313 48.608 236.257 49.232H240.409ZM245.306 53.108C244.802 53.108 244.35 53.024 243.95 52.856C243.55 52.68 243.234 52.44 243.002 52.136C242.77 51.824 242.642 51.468 242.618 51.068H243.746C243.778 51.396 243.93 51.664 244.202 51.872C244.482 52.08 244.846 52.184 245.294 52.184C245.71 52.184 246.038 52.092 246.278 51.908C246.518 51.724 246.638 51.492 246.638 51.212C246.638 50.924 246.51 50.712 246.254 50.576C245.998 50.432 245.602 50.292 245.066 50.156C244.578 50.028 244.178 49.9 243.866 49.772C243.562 49.636 243.298 49.44 243.074 49.184C242.858 48.92 242.75 48.576 242.75 48.152C242.75 47.816 242.85 47.508 243.05 47.228C243.25 46.948 243.534 46.728 243.902 46.568C244.27 46.4 244.69 46.316 245.162 46.316C245.89 46.316 246.478 46.5 246.926 46.868C247.374 47.236 247.614 47.74 247.646 48.38H246.554C246.53 48.036 246.39 47.76 246.134 47.552C245.886 47.344 245.55 47.24 245.126 47.24C244.734 47.24 244.422 47.324 244.19 47.492C243.958 47.66 243.842 47.88 243.842 48.152C243.842 48.368 243.91 48.548 244.046 48.692C244.19 48.828 244.366 48.94 244.574 49.028C244.79 49.108 245.086 49.2 245.462 49.304C245.934 49.432 246.318 49.56 246.614 49.688C246.91 49.808 247.162 49.992 247.37 50.24C247.586 50.488 247.698 50.812 247.706 51.212C247.706 51.572 247.606 51.896 247.406 52.184C247.206 52.472 246.922 52.7 246.554 52.868C246.194 53.028 245.778 53.108 245.306 53.108ZM190.932 65.084C190.932 65.78 190.692 66.36 190.212 66.824C189.74 67.28 189.016 67.508 188.04 67.508H186.432V71H185.34V62.636H188.04C188.984 62.636 189.7 62.864 190.188 63.32C190.684 63.776 190.932 64.364 190.932 65.084ZM188.04 66.608C188.648 66.608 189.096 66.476 189.384 66.212C189.672 65.948 189.816 65.572 189.816 65.084C189.816 64.052 189.224 63.536 188.04 63.536H186.432V66.608H188.04ZM198.289 67.46C198.289 67.668 198.277 67.888 198.253 68.12H192.997C193.037 68.768 193.257 69.276 193.657 69.644C194.065 70.004 194.557 70.184 195.133 70.184C195.605 70.184 195.997 70.076 196.309 69.86C196.629 69.636 196.853 69.34 196.981 68.972H198.157C197.981 69.604 197.629 70.12 197.101 70.52C196.573 70.912 195.917 71.108 195.133 71.108C194.509 71.108 193.949 70.968 193.453 70.688C192.965 70.408 192.581 70.012 192.301 69.5C192.021 68.98 191.881 68.38 191.881 67.7C191.881 67.02 192.017 66.424 192.289 65.912C192.561 65.4 192.941 65.008 193.429 64.736C193.925 64.456 194.493 64.316 195.133 64.316C195.757 64.316 196.309 64.452 196.789 64.724C197.269 64.996 197.637 65.372 197.893 65.852C198.157 66.324 198.289 66.86 198.289 67.46ZM197.161 67.232C197.161 66.816 197.069 66.46 196.885 66.164C196.701 65.86 196.449 65.632 196.129 65.48C195.817 65.32 195.469 65.24 195.085 65.24C194.533 65.24 194.061 65.416 193.669 65.768C193.285 66.12 193.065 66.608 193.009 67.232H197.161ZM202.058 71.108C201.554 71.108 201.102 71.024 200.702 70.856C200.302 70.68 199.986 70.44 199.754 70.136C199.522 69.824 199.394 69.468 199.37 69.068H200.498C200.53 69.396 200.682 69.664 200.954 69.872C201.234 70.08 201.598 70.184 202.046 70.184C202.462 70.184 202.79 70.092 203.03 69.908C203.27 69.724 203.39 69.492 203.39 69.212C203.39 68.924 203.262 68.712 203.006 68.576C202.75 68.432 202.354 68.292 201.818 68.156C201.33 68.028 200.93 67.9 200.618 67.772C200.314 67.636 200.05 67.44 199.826 67.184C199.61 66.92 199.502 66.576 199.502 66.152C199.502 65.816 199.602 65.508 199.802 65.228C200.002 64.948 200.286 64.728 200.654 64.568C201.022 64.4 201.442 64.316 201.914 64.316C202.642 64.316 203.23 64.5 203.678 64.868C204.126 65.236 204.366 65.74 204.398 66.38H203.306C203.282 66.036 203.142 65.76 202.886 65.552C202.638 65.344 202.302 65.24 201.878 65.24C201.486 65.24 201.174 65.324 200.942 65.492C200.71 65.66 200.594 65.88 200.594 66.152C200.594 66.368 200.662 66.548 200.798 66.692C200.942 66.828 201.118 66.94 201.326 67.028C201.542 67.108 201.838 67.2 202.214 67.304C202.686 67.432 203.07 67.56 203.366 67.688C203.662 67.808 203.914 67.992 204.122 68.24C204.338 68.488 204.45 68.812 204.458 69.212C204.458 69.572 204.358 69.896 204.158 70.184C203.958 70.472 203.674 70.7 203.306 70.868C202.946 71.028 202.53 71.108 202.058 71.108ZM208.328 71.108C207.824 71.108 207.372 71.024 206.972 70.856C206.572 70.68 206.256 70.44 206.024 70.136C205.792 69.824 205.664 69.468 205.64 69.068H206.768C206.8 69.396 206.952 69.664 207.224 69.872C207.504 70.08 207.868 70.184 208.316 70.184C208.732 70.184 209.06 70.092 209.3 69.908C209.54 69.724 209.66 69.492 209.66 69.212C209.66 68.924 209.532 68.712 209.276 68.576C209.02 68.432 208.624 68.292 208.088 68.156C207.6 68.028 207.2 67.9 206.888 67.772C206.584 67.636 206.32 67.44 206.096 67.184C205.88 66.92 205.772 66.576 205.772 66.152C205.772 65.816 205.872 65.508 206.072 65.228C206.272 64.948 206.556 64.728 206.924 64.568C207.292 64.4 207.712 64.316 208.184 64.316C208.912 64.316 209.5 64.5 209.948 64.868C210.396 65.236 210.636 65.74 210.668 66.38H209.576C209.552 66.036 209.412 65.76 209.156 65.552C208.908 65.344 208.572 65.24 208.148 65.24C207.756 65.24 207.444 65.324 207.212 65.492C206.98 65.66 206.864 65.88 206.864 66.152C206.864 66.368 206.932 66.548 207.068 66.692C207.212 66.828 207.388 66.94 207.596 67.028C207.812 67.108 208.108 67.2 208.484 67.304C208.956 67.432 209.34 67.56 209.636 67.688C209.932 67.808 210.184 67.992 210.392 68.24C210.608 68.488 210.72 68.812 210.728 69.212C210.728 69.572 210.628 69.896 210.428 70.184C210.228 70.472 209.944 70.7 209.576 70.868C209.216 71.028 208.8 71.108 208.328 71.108ZM215.137 71.108C214.521 71.108 213.961 70.968 213.457 70.688C212.961 70.408 212.569 70.012 212.281 69.5C212.001 68.98 211.861 68.38 211.861 67.7C211.861 67.028 212.005 66.436 212.293 65.924C212.589 65.404 212.989 65.008 213.493 64.736C213.997 64.456 214.561 64.316 215.185 64.316C215.809 64.316 216.373 64.456 216.877 64.736C217.381 65.008 217.777 65.4 218.065 65.912C218.361 66.424 218.509 67.02 218.509 67.7C218.509 68.38 218.357 68.98 218.053 69.5C217.757 70.012 217.353 70.408 216.841 70.688C216.329 70.968 215.761 71.108 215.137 71.108ZM215.137 70.148C215.529 70.148 215.897 70.056 216.241 69.872C216.585 69.688 216.861 69.412 217.069 69.044C217.285 68.676 217.393 68.228 217.393 67.7C217.393 67.172 217.289 66.724 217.081 66.356C216.873 65.988 216.601 65.716 216.265 65.54C215.929 65.356 215.565 65.264 215.173 65.264C214.773 65.264 214.405 65.356 214.069 65.54C213.741 65.716 213.477 65.988 213.277 66.356C213.077 66.724 212.977 67.172 212.977 67.7C212.977 68.236 213.073 68.688 213.265 69.056C213.465 69.424 213.729 69.7 214.057 69.884C214.385 70.06 214.745 70.148 215.137 70.148ZM219.537 67.688C219.537 67.016 219.673 66.428 219.945 65.924C220.217 65.412 220.589 65.016 221.061 64.736C221.541 64.456 222.073 64.316 222.657 64.316C223.233 64.316 223.733 64.44 224.157 64.688C224.581 64.936 224.897 65.248 225.105 65.624V64.424H226.209V71H225.105V69.776C224.889 70.16 224.565 70.48 224.133 70.736C223.709 70.984 223.213 71.108 222.645 71.108C222.061 71.108 221.533 70.964 221.061 70.676C220.589 70.388 220.217 69.984 219.945 69.464C219.673 68.944 219.537 68.352 219.537 67.688ZM225.105 67.7C225.105 67.204 225.005 66.772 224.805 66.404C224.605 66.036 224.333 65.756 223.989 65.564C223.653 65.364 223.281 65.264 222.873 65.264C222.465 65.264 222.093 65.36 221.757 65.552C221.421 65.744 221.153 66.024 220.953 66.392C220.753 66.76 220.653 67.192 220.653 67.688C220.653 68.192 220.753 68.632 220.953 69.008C221.153 69.376 221.421 69.66 221.757 69.86C222.093 70.052 222.465 70.148 222.873 70.148C223.281 70.148 223.653 70.052 223.989 69.86C224.333 69.66 224.605 69.376 224.805 69.008C225.005 68.632 225.105 68.196 225.105 67.7ZM228.619 63.356C228.411 63.356 228.235 63.284 228.091 63.14C227.947 62.996 227.875 62.82 227.875 62.612C227.875 62.404 227.947 62.228 228.091 62.084C228.235 61.94 228.411 61.868 228.619 61.868C228.819 61.868 228.987 61.94 229.123 62.084C229.267 62.228 229.339 62.404 229.339 62.612C229.339 62.82 229.267 62.996 229.123 63.14C228.987 63.284 228.819 63.356 228.619 63.356ZM229.147 64.424V71H228.055V64.424H229.147ZM233.336 71.108C232.832 71.108 232.38 71.024 231.98 70.856C231.58 70.68 231.264 70.44 231.032 70.136C230.8 69.824 230.672 69.468 230.648 69.068H231.776C231.808 69.396 231.96 69.664 232.232 69.872C232.512 70.08 232.876 70.184 233.324 70.184C233.74 70.184 234.068 70.092 234.308 69.908C234.548 69.724 234.668 69.492 234.668 69.212C234.668 68.924 234.54 68.712 234.284 68.576C234.028 68.432 233.632 68.292 233.096 68.156C232.608 68.028 232.208 67.9 231.896 67.772C231.592 67.636 231.328 67.44 231.104 67.184C230.888 66.92 230.78 66.576 230.78 66.152C230.78 65.816 230.88 65.508 231.08 65.228C231.28 64.948 231.564 64.728 231.932 64.568C232.3 64.4 232.72 64.316 233.192 64.316C233.92 64.316 234.508 64.5 234.956 64.868C235.404 65.236 235.644 65.74 235.676 66.38H234.584C234.56 66.036 234.42 65.76 234.164 65.552C233.916 65.344 233.58 65.24 233.156 65.24C232.764 65.24 232.452 65.324 232.22 65.492C231.988 65.66 231.872 65.88 231.872 66.152C231.872 66.368 231.94 66.548 232.076 66.692C232.22 66.828 232.396 66.94 232.604 67.028C232.82 67.108 233.116 67.2 233.492 67.304C233.964 67.432 234.348 67.56 234.644 67.688C234.94 67.808 235.192 67.992 235.4 68.24C235.616 68.488 235.728 68.812 235.736 69.212C235.736 69.572 235.636 69.896 235.436 70.184C235.236 70.472 234.952 70.7 234.584 70.868C234.224 71.028 233.808 71.108 233.336 71.108Z" fill="#C8C8D0"/>
<circle cx="338.385" cy="16" r="15.5" fill="white" stroke="#D4D4D8"/>
<path d="M334.345 13.344C334.419 12.3626 334.798 11.5946 335.481 11.04C336.163 10.4853 337.049 10.208 338.137 10.208C338.862 10.208 339.486 10.3413 340.009 10.608C340.542 10.864 340.942 11.216 341.209 11.664C341.486 12.112 341.625 12.6186 341.625 13.184C341.625 13.8453 341.433 14.416 341.049 14.896C340.675 15.376 340.185 15.6853 339.577 15.824V15.904C340.27 16.0746 340.819 16.4106 341.225 16.912C341.63 17.4133 341.833 18.0693 341.833 18.88C341.833 19.488 341.694 20.0373 341.417 20.528C341.139 21.008 340.723 21.3866 340.169 21.664C339.614 21.9413 338.947 22.08 338.169 22.08C337.038 22.08 336.11 21.7866 335.385 21.2C334.659 20.6026 334.254 19.76 334.169 18.672H335.577C335.651 19.312 335.913 19.8346 336.361 20.24C336.809 20.6453 337.406 20.848 338.153 20.848C338.899 20.848 339.465 20.656 339.849 20.272C340.243 19.8773 340.441 19.3706 340.441 18.752C340.441 17.952 340.174 17.376 339.641 17.024C339.107 16.672 338.302 16.496 337.225 16.496H336.857V15.28H337.241C338.222 15.2693 338.963 15.1093 339.465 14.8C339.966 14.48 340.217 13.9893 340.217 13.328C340.217 12.7626 340.03 12.3093 339.657 11.968C339.294 11.6266 338.771 11.456 338.089 11.456C337.427 11.456 336.894 11.6266 336.489 11.968C336.083 12.3093 335.843 12.768 335.769 13.344H334.345Z" fill="#C8C8D0"/>
<path d="M297.135 44.636C298.047 44.636 298.835 44.808 299.499 45.152C300.171 45.488 300.683 45.972 301.035 46.604C301.395 47.236 301.575 47.98 301.575 48.836C301.575 49.692 301.395 50.436 301.035 51.068C300.683 51.692 300.171 52.172 299.499 52.508C298.835 52.836 298.047 53 297.135 53H294.531V44.636H297.135ZM297.135 52.1C298.215 52.1 299.039 51.816 299.607 51.248C300.175 50.672 300.459 49.868 300.459 48.836C300.459 47.796 300.171 46.984 299.595 46.4C299.027 45.816 298.207 45.524 297.135 45.524H295.623V52.1H297.135ZM302.608 49.688C302.608 49.016 302.744 48.428 303.016 47.924C303.288 47.412 303.66 47.016 304.132 46.736C304.612 46.456 305.144 46.316 305.728 46.316C306.304 46.316 306.804 46.44 307.228 46.688C307.652 46.936 307.968 47.248 308.176 47.624V46.424H309.28V53H308.176V51.776C307.96 52.16 307.636 52.48 307.204 52.736C306.78 52.984 306.284 53.108 305.716 53.108C305.132 53.108 304.604 52.964 304.132 52.676C303.66 52.388 303.288 51.984 303.016 51.464C302.744 50.944 302.608 50.352 302.608 49.688ZM308.176 49.7C308.176 49.204 308.076 48.772 307.876 48.404C307.676 48.036 307.404 47.756 307.06 47.564C306.724 47.364 306.352 47.264 305.944 47.264C305.536 47.264 305.164 47.36 304.828 47.552C304.492 47.744 304.224 48.024 304.024 48.392C303.824 48.76 303.724 49.192 303.724 49.688C303.724 50.192 303.824 50.632 304.024 51.008C304.224 51.376 304.492 51.66 304.828 51.86C305.164 52.052 305.536 52.148 305.944 52.148C306.352 52.148 306.724 52.052 307.06 51.86C307.404 51.66 307.676 51.376 307.876 51.008C308.076 50.632 308.176 50.196 308.176 49.7ZM310.717 49.688C310.717 49.016 310.853 48.428 311.125 47.924C311.397 47.412 311.769 47.016 312.241 46.736C312.721 46.456 313.257 46.316 313.849 46.316C314.361 46.316 314.837 46.436 315.277 46.676C315.717 46.908 316.053 47.216 316.285 47.6V44.12H317.389V53H316.285V51.764C316.069 52.156 315.749 52.48 315.325 52.736C314.901 52.984 314.405 53.108 313.837 53.108C313.253 53.108 312.721 52.964 312.241 52.676C311.769 52.388 311.397 51.984 311.125 51.464C310.853 50.944 310.717 50.352 310.717 49.688ZM316.285 49.7C316.285 49.204 316.185 48.772 315.985 48.404C315.785 48.036 315.513 47.756 315.169 47.564C314.833 47.364 314.461 47.264 314.053 47.264C313.645 47.264 313.273 47.36 312.937 47.552C312.601 47.744 312.333 48.024 312.133 48.392C311.933 48.76 311.833 49.192 311.833 49.688C311.833 50.192 311.933 50.632 312.133 51.008C312.333 51.376 312.601 51.66 312.937 51.86C313.273 52.052 313.645 52.148 314.053 52.148C314.461 52.148 314.833 52.052 315.169 51.86C315.513 51.66 315.785 51.376 315.985 51.008C316.185 50.632 316.285 50.196 316.285 49.7ZM322.102 53.108C321.486 53.108 320.926 52.968 320.422 52.688C319.926 52.408 319.534 52.012 319.246 51.5C318.966 50.98 318.826 50.38 318.826 49.7C318.826 49.028 318.97 48.436 319.258 47.924C319.554 47.404 319.954 47.008 320.458 46.736C320.962 46.456 321.526 46.316 322.15 46.316C322.774 46.316 323.338 46.456 323.842 46.736C324.346 47.008 324.742 47.4 325.03 47.912C325.326 48.424 325.474 49.02 325.474 49.7C325.474 50.38 325.322 50.98 325.018 51.5C324.722 52.012 324.318 52.408 323.806 52.688C323.294 52.968 322.726 53.108 322.102 53.108ZM322.102 52.148C322.494 52.148 322.862 52.056 323.206 51.872C323.55 51.688 323.826 51.412 324.034 51.044C324.25 50.676 324.358 50.228 324.358 49.7C324.358 49.172 324.254 48.724 324.046 48.356C323.838 47.988 323.566 47.716 323.23 47.54C322.894 47.356 322.53 47.264 322.138 47.264C321.738 47.264 321.37 47.356 321.034 47.54C320.706 47.716 320.442 47.988 320.242 48.356C320.042 48.724 319.942 49.172 319.942 49.7C319.942 50.236 320.038 50.688 320.23 51.056C320.43 51.424 320.694 51.7 321.022 51.884C321.35 52.06 321.71 52.148 322.102 52.148ZM329.238 53.108C328.734 53.108 328.282 53.024 327.882 52.856C327.482 52.68 327.166 52.44 326.934 52.136C326.702 51.824 326.574 51.468 326.55 51.068H327.678C327.71 51.396 327.862 51.664 328.134 51.872C328.414 52.08 328.778 52.184 329.226 52.184C329.642 52.184 329.97 52.092 330.21 51.908C330.45 51.724 330.57 51.492 330.57 51.212C330.57 50.924 330.442 50.712 330.186 50.576C329.93 50.432 329.534 50.292 328.998 50.156C328.51 50.028 328.11 49.9 327.798 49.772C327.494 49.636 327.23 49.44 327.006 49.184C326.79 48.92 326.682 48.576 326.682 48.152C326.682 47.816 326.782 47.508 326.982 47.228C327.182 46.948 327.466 46.728 327.834 46.568C328.202 46.4 328.622 46.316 329.094 46.316C329.822 46.316 330.41 46.5 330.858 46.868C331.306 47.236 331.546 47.74 331.578 48.38H330.486C330.462 48.036 330.322 47.76 330.066 47.552C329.818 47.344 329.482 47.24 329.058 47.24C328.666 47.24 328.354 47.324 328.122 47.492C327.89 47.66 327.774 47.88 327.774 48.152C327.774 48.368 327.842 48.548 327.978 48.692C328.122 48.828 328.298 48.94 328.506 49.028C328.722 49.108 329.018 49.2 329.394 49.304C329.866 49.432 330.25 49.56 330.546 49.688C330.842 49.808 331.094 49.992 331.302 50.24C331.518 50.488 331.63 50.812 331.638 51.212C331.638 51.572 331.538 51.896 331.338 52.184C331.138 52.472 330.854 52.7 330.486 52.868C330.126 53.028 329.71 53.108 329.238 53.108ZM335.971 49.688C335.971 49.016 336.107 48.428 336.379 47.924C336.651 47.412 337.023 47.016 337.495 46.736C337.975 46.456 338.511 46.316 339.103 46.316C339.615 46.316 340.091 46.436 340.531 46.676C340.971 46.908 341.307 47.216 341.539 47.6V44.12H342.643V53H341.539V51.764C341.323 52.156 341.003 52.48 340.579 52.736C340.155 52.984 339.659 53.108 339.091 53.108C338.507 53.108 337.975 52.964 337.495 52.676C337.023 52.388 336.651 51.984 336.379 51.464C336.107 50.944 335.971 50.352 335.971 49.688ZM341.539 49.7C341.539 49.204 341.439 48.772 341.239 48.404C341.039 48.036 340.767 47.756 340.423 47.564C340.087 47.364 339.715 47.264 339.307 47.264C338.899 47.264 338.527 47.36 338.191 47.552C337.855 47.744 337.587 48.024 337.387 48.392C337.187 48.76 337.087 49.192 337.087 49.688C337.087 50.192 337.187 50.632 337.387 51.008C337.587 51.376 337.855 51.66 338.191 51.86C338.527 52.052 338.899 52.148 339.307 52.148C339.715 52.148 340.087 52.052 340.423 51.86C340.767 51.66 341.039 51.376 341.239 51.008C341.439 50.632 341.539 50.196 341.539 49.7ZM347.356 53.108C346.74 53.108 346.18 52.968 345.676 52.688C345.18 52.408 344.788 52.012 344.5 51.5C344.22 50.98 344.08 50.38 344.08 49.7C344.08 49.028 344.224 48.436 344.512 47.924C344.808 47.404 345.208 47.008 345.712 46.736C346.216 46.456 346.78 46.316 347.404 46.316C348.028 46.316 348.592 46.456 349.096 46.736C349.6 47.008 349.996 47.4 350.284 47.912C350.58 48.424 350.728 49.02 350.728 49.7C350.728 50.38 350.576 50.98 350.272 51.5C349.976 52.012 349.572 52.408 349.06 52.688C348.548 52.968 347.98 53.108 347.356 53.108ZM347.356 52.148C347.748 52.148 348.116 52.056 348.46 51.872C348.804 51.688 349.08 51.412 349.288 51.044C349.504 50.676 349.612 50.228 349.612 49.7C349.612 49.172 349.508 48.724 349.3 48.356C349.092 47.988 348.82 47.716 348.484 47.54C348.148 47.356 347.784 47.264 347.392 47.264C346.992 47.264 346.624 47.356 346.288 47.54C345.96 47.716 345.696 47.988 345.496 48.356C345.296 48.724 345.196 49.172 345.196 49.7C345.196 50.236 345.292 50.688 345.484 51.056C345.684 51.424 345.948 51.7 346.276 51.884C346.604 52.06 346.964 52.148 347.356 52.148ZM360.955 47.084C360.955 47.78 360.715 48.36 360.235 48.824C359.763 49.28 359.039 49.508 358.063 49.508H356.455V53H355.363V44.636H358.063C359.007 44.636 359.723 44.864 360.211 45.32C360.707 45.776 360.955 46.364 360.955 47.084ZM358.063 48.608C358.671 48.608 359.119 48.476 359.407 48.212C359.695 47.948 359.839 47.572 359.839 47.084C359.839 46.052 359.247 45.536 358.063 45.536H356.455V48.608H358.063ZM368.312 49.46C368.312 49.668 368.3 49.888 368.276 50.12H363.02C363.06 50.768 363.28 51.276 363.68 51.644C364.088 52.004 364.58 52.184 365.156 52.184C365.628 52.184 366.02 52.076 366.332 51.86C366.652 51.636 366.876 51.34 367.004 50.972H368.18C368.004 51.604 367.652 52.12 367.124 52.52C366.596 52.912 365.94 53.108 365.156 53.108C364.532 53.108 363.972 52.968 363.476 52.688C362.988 52.408 362.604 52.012 362.324 51.5C362.044 50.98 361.904 50.38 361.904 49.7C361.904 49.02 362.04 48.424 362.312 47.912C362.584 47.4 362.964 47.008 363.452 46.736C363.948 46.456 364.516 46.316 365.156 46.316C365.78 46.316 366.332 46.452 366.812 46.724C367.292 46.996 367.66 47.372 367.916 47.852C368.18 48.324 368.312 48.86 368.312 49.46ZM367.184 49.232C367.184 48.816 367.092 48.46 366.908 48.164C366.724 47.86 366.472 47.632 366.152 47.48C365.84 47.32 365.492 47.24 365.108 47.24C364.556 47.24 364.084 47.416 363.692 47.768C363.308 48.12 363.088 48.608 363.032 49.232H367.184ZM370.846 47.492C371.038 47.116 371.31 46.824 371.662 46.616C372.022 46.408 372.458 46.304 372.97 46.304V47.432H372.682C371.458 47.432 370.846 48.096 370.846 49.424V53H369.754V46.424H370.846V47.492ZM376.906 47.324H375.526V53H374.434V47.324H373.582V46.424H374.434V45.956C374.434 45.22 374.622 44.684 374.998 44.348C375.382 44.004 375.994 43.832 376.834 43.832V44.744C376.354 44.744 376.014 44.84 375.814 45.032C375.622 45.216 375.526 45.524 375.526 45.956V46.424H376.906V47.324ZM378.744 45.356C378.536 45.356 378.36 45.284 378.216 45.14C378.072 44.996 378 44.82 378 44.612C378 44.404 378.072 44.228 378.216 44.084C378.36 43.94 378.536 43.868 378.744 43.868C378.944 43.868 379.112 43.94 379.248 44.084C379.392 44.228 379.464 44.404 379.464 44.612C379.464 44.82 379.392 44.996 379.248 45.14C379.112 45.284 378.944 45.356 378.744 45.356ZM379.272 46.424V53H378.18V46.424H379.272ZM382.225 44.12V53H381.133V44.12H382.225Z" fill="#C8C8D0"/>
</svg>
